<svg width="24" height="24" viewBox="0 0 24 24" fill="none" xmlns="http://www.w3.org/2000/svg">
<path d="M5.5 6.59003L6.561 5.53003L12.34 11.307C12.4332 11.3996 12.5071 11.5097 12.5575 11.6309C12.608 11.7522 12.634 11.8822 12.634 12.0135C12.634 12.1449 12.608 12.2749 12.5575 12.3961C12.5071 12.5174 12.4332 12.6275 12.34 12.72L6.561 18.5L5.501 17.44L10.925 12.015L5.5 6.59003Z" fill="black"/>
<path d="M18.7679 6.56L17.7069 5.5L11.9279 11.277C11.8347 11.3696 11.7608 11.4796 11.7104 11.6009C11.6599 11.7221 11.634 11.8522 11.634 11.9835C11.634 12.1148 11.6599 12.2449 11.7104 12.3661C11.7608 12.4874 11.8347 12.5974 11.9279 12.69L17.7069 18.47L18.7669 17.41L13.3429 11.985L18.7679 6.56Z" fill="black"/>
</svg>