<svg viewBox="0 0 390 204" fill="none" xmlns="http://www.w3.org/2000/svg">
    <path fill-rule="evenodd" clip-rule="evenodd" d="M116.893 242.755C85.2475 211.109 110.902 134.146 174.193 70.8547C174.348 70.7001 174.503 70.5458 174.657 70.3917C178.318 71.5841 181.986 72.8315 185.66 74.1343C203.202 80.3549 219.854 87.4796 235.407 95.2921C224.209 119.885 245.363 157.894 285.354 188.843C222.739 249.653 147.968 273.83 116.893 242.755ZM317.671 152.335C296.543 131.599 268.455 111.893 235.407 95.2921C235.821 94.3822 236.28 93.4907 236.783 92.6186C251.655 66.8605 300.794 66.6111 352.252 89.9576C345.287 109.857 333.549 131.28 317.671 152.335ZM360.217 227.8C401.02 240.049 436.415 236.115 448.643 214.936C465.538 185.673 431.807 134.57 373.304 100.793C366.297 96.7473 359.253 93.1341 352.252 89.9576C363.48 57.8826 362.308 29.7699 346.093 13.5548C314.525 -18.0139 237.861 7.43797 174.657 70.3917C63.6315 34.2268 -39.9558 48.7194 -59.7136 104.436C-80.1228 161.99 -3.35501 241.736 111.752 282.554C226.859 323.373 336.717 309.806 357.126 252.253C359.89 244.458 360.872 236.257 360.217 227.8ZM360.217 227.8C344.644 223.125 328.283 216.093 312.122 206.762C302.49 201.201 293.529 195.17 285.354 188.843C286.505 187.726 287.651 186.597 288.793 185.455C299.536 174.712 309.194 163.576 317.671 152.335C343.01 177.202 358.34 203.55 360.217 227.8Z" fill="#FFA4FF"/>
</svg>
