<svg width="1038" height="671" viewBox="0 0 1038 671" fill="none" xmlns="http://www.w3.org/2000/svg">
    <path fill-rule="evenodd" clip-rule="evenodd" d="M476.229 595.948C392.453 512.172 460.367 308.431 627.919 140.88C628.328 140.47 628.737 140.062 629.147 139.654C638.837 142.81 648.549 146.113 658.275 149.562C704.714 166.029 748.795 184.891 789.968 205.572C760.326 270.677 816.326 371.297 922.194 453.23C756.433 614.211 558.493 678.212 476.229 595.948ZM1007.75 356.58C951.812 301.686 877.456 249.519 789.968 205.572C791.065 203.164 792.279 200.804 793.612 198.495C832.981 130.306 963.068 129.646 1099.29 191.45C1080.85 244.129 1049.78 300.844 1007.75 356.58ZM1120.38 556.359C1228.39 588.784 1322.09 578.371 1354.47 522.304C1399.19 444.837 1309.9 309.551 1155.02 220.134C1136.47 209.425 1117.83 199.859 1099.29 191.45C1129.01 106.539 1125.91 32.1162 1082.99 -10.8098C999.416 -94.381 796.464 -27.0027 629.147 139.654C335.23 43.915 61.0045 82.2812 8.69998 229.779C-45.329 382.14 157.897 593.251 462.619 701.309C767.34 809.367 1058.17 773.452 1112.19 621.092C1119.51 600.458 1122.11 578.746 1120.38 556.359ZM1120.38 556.359C1079.15 543.983 1035.84 525.366 993.056 500.665C967.556 485.943 943.833 469.977 922.194 453.23C925.24 450.272 928.274 447.281 931.297 444.258C959.735 415.82 985.303 386.34 1007.75 356.58C1074.82 422.411 1115.41 492.163 1120.38 556.359Z" fill="#FFA4FF"/>
</svg>
