<svg width="1400" height="755" viewBox="0 0 1400 755" fill="none" xmlns="http://www.w3.org/2000/svg">
<g clip-path="url(#clip0_1195_2676)">
<path d="M1400 0V1034H0V0H1400Z" fill="#FFA4FF"/>
<mask id="mask0_1195_2676" style="mask-type:alpha" maskUnits="userSpaceOnUse" x="0" y="0" width="1400" height="1034">
<rect x="1400" width="1034" height="1400" transform="rotate(90 1400 0)" fill="black"/>
</mask>
<g mask="url(#mask0_1195_2676)">
<path fill-rule="evenodd" clip-rule="evenodd" d="M833.027 532.612C1266.92 266.084 1515.55 -131.57 1389.26 -360.165C1261.75 -590.975 800.31 -562.029 358.601 -295.512C-83.1078 -28.9955 -337.816 374.168 -210.306 604.978C-146.961 719.64 -1.20471 770.197 183.603 759.368C135.603 936.01 153.61 1087.9 241.869 1141.15C366.655 1216.45 584.624 1066.04 728.716 805.221C779.822 712.711 814.771 618.736 833.027 532.612ZM833.027 532.612C866.242 375.917 844.197 245.214 763.67 196.626C638.883 121.333 420.914 271.735 276.823 532.559C234.643 608.91 203.47 686.259 183.603 759.368C370.807 748.398 598.08 674.442 820.357 540.326C824.598 537.767 828.821 535.196 833.027 532.612Z" fill="#EE2C01"/>
</g>
</g>
<defs>
<clipPath id="clip0_1195_2676">
<rect width="1400" height="1034" fill="white"/>
</clipPath>
</defs>
</svg>
